<svg width="58" height="54" viewBox="0 0 58 54" fill="none" xmlns="http://www.w3.org/2000/svg">
<ellipse cx="28.9181" cy="26.999" rx="28.5138" ry="26.5263" fill="#F0F0F0" fill-opacity="0.4"/>
<path d="M39.7126 17.9177C39.5188 17.4837 39.1481 17.1388 38.6815 16.9585C38.4519 16.8675 38.2054 16.8192 37.9559 16.8164H18.8619C18.3555 16.8164 17.8698 17.0036 17.5117 17.3367C17.1536 17.6698 16.9525 18.1216 16.9525 18.5927C16.9525 19.0638 17.1536 19.5156 17.5117 19.8488C17.8698 20.1819 18.3555 20.369 18.8619 20.369H33.3543L17.5062 35.0947C17.3272 35.2598 17.1852 35.4563 17.0883 35.6728C16.9913 35.8892 16.9414 36.1214 16.9414 36.3559C16.9414 36.5904 16.9913 36.8225 17.0883 37.039C17.1852 37.2555 17.3272 37.4519 17.5062 37.6171C17.6837 37.7836 17.8949 37.9157 18.1276 38.0059C18.3602 38.0961 18.6098 38.1425 18.8619 38.1425C19.1139 38.1425 19.3635 38.0961 19.5962 38.0059C19.8289 37.9157 20.0401 37.7836 20.2176 37.6171L36.0465 22.8736V36.3559C36.0465 36.827 36.2477 37.2788 36.6058 37.6119C36.9638 37.9451 37.4495 38.1322 37.9559 38.1322C38.4623 38.1322 38.948 37.9451 39.3061 37.6119C39.6642 37.2788 39.8653 36.827 39.8653 36.3559V18.5927C39.8623 18.3606 39.8104 18.1313 39.7126 17.9177Z" fill="#F0F0F0"/>
</svg>
